<?xml version="1.0" encoding="UTF-8"?>
<svg id="Layer_1" data-name="Layer 1" xmlns="http://www.w3.org/2000/svg" xmlns:xlink="http://www.w3.org/1999/xlink" viewBox="0 0 800 800">
  <defs>
    <style>
      .cls-1, .cls-2 {
        stroke-width: 0px;
      }

      .cls-2 {
        fill: #fff;
      }

      .cls-3 {
        filter: url(#luminosity-invert);
      }

      .cls-4 {
        mask: url(#mask);
      }
    </style>
    <filter id="luminosity-invert" x="-5.32" y="48.58" width="810" height="692.96" color-interpolation-filters="sRGB" filterUnits="userSpaceOnUse">
      <feColorMatrix result="cm" values="-1 0 0 0 1 0 -1 0 0 1 0 0 -1 0 1 0 0 0 1 0"/>
    </filter>
    <mask id="mask" x="-5.32" y="48.58" width="810" height="692.96" maskUnits="userSpaceOnUse">
      <g class="cls-3">
        <g>
          <g>
            <rect class="cls-1" x="-2.82" y="51.08" width="805" height="409.53"/>
            <path class="cls-2" d="m799.68,53.58v404.53H-.32V53.58h800m5-5H-5.32v414.53h810V48.58h0Z"/>
          </g>
          <g>
            <path class="cls-1" d="m623.58,739.04c-6.36,0-12.58-1.05-18.52-3.12-24.66-8.62-50.11-15.71-75.66-21.09-10.15-2.15-19.25-7.12-26.32-14.38l-56.75-58.14c-6.35-6.49-6.32-16.67.06-23.16l325.92-332.54,1.84-1.12c3.79-2.26,7.53-3.41,11.12-3.41,1.74,0,3.4.27,4.98.79v-.5l3.83,2.35c5,3.14,8,8.38,8.04,14.03.15,1.77-.04,3.77-.55,5.78l-110.28,380.26c-2.75,9.44-7.19,18.14-13.22,25.87-8.02,10.29-18.94,18.47-31.59,23.64-7.34,3.14-15.06,4.74-22.9,4.74Zm-444.82-2.08c-21.71,0-41.83-8.9-55.2-24.41-.82-.98-1.62-1.92-2.37-2.93-5.95-7.58-10.39-16.27-13.14-25.75L-2.18,303.85c-1.38-5.54-.47-10.76,2.56-14.78,3.21-4.26,8.38-6.84,14.18-7.06h0c4.17,0,7.89,1.33,11.16,3.95l.12.09,1.31,1.35,378.78,385.79c2.38,2.48,3.85,5.13,4.42,7.94.9,4.65-.25,9.45-3.17,13.19-2.96,3.86-7.51,6.23-12.47,6.49-5.47.27-10.46.58-15.25.95h-.11c-60.2,1.93-119.42,12.43-176.04,31.2-7.84,2.66-16.11,4-24.57,4Zm220.8-149.63c-5.48,0-10.47-2.52-13.72-6.92l-143.39-146.89c-.67-.64-1.47-1.5-2.26-2.42-15.71-17.65-18.73-43.1-7.65-64.82L384.29,68.38l.07-.11c3.4-5.28,8.93-8.31,15.2-8.31s11.76,2.99,15.02,7.99l.07.11,152.13,298.67c8.35,16.35,8.73,35.48,1,51.17-2.84,5.74-6.6,11.01-11.17,15.65l-143.63,147.22c-3.03,4.11-8.03,6.56-13.41,6.56Z"/>
            <path class="cls-2" d="m399.56,62.46c5.33,0,10.12,2.56,12.93,6.85l76.03,149.28,76.03,149.28c7.99,15.65,8.36,33.96.98,48.93-2.75,5.56-6.37,10.59-10.71,15l-143.77,147.35c-2.5,3.48-6.79,5.67-11.5,5.67s-9.03-2.19-11.81-6.04l-143.52-147.02c-.7-.67-1.46-1.49-2.16-2.3-15.03-16.88-17.92-41.26-7.32-62.05L386.46,69.63c2.94-4.58,7.77-7.16,13.09-7.16M14.66,284.51c3.48,0,6.7,1.15,9.51,3.4l1.21,1.24,378.79,385.8.03.03c1.99,2.08,3.25,4.33,3.73,6.66.76,3.9-.2,7.95-2.69,11.15-2.52,3.29-6.42,5.31-10.63,5.53-5.08.25-10.18.56-15.31.95-60.57,1.94-119.99,12.5-176.75,31.32-7.8,2.64-15.84,3.88-23.78,3.88-20.47,0-40.21-8.34-53.31-23.54-.76-.9-1.54-1.83-2.24-2.78-5.86-7.47-10.12-15.9-12.76-24.97L.22,303.16c-1.18-4.72-.42-9.16,2.16-12.58,2.75-3.65,7.21-5.87,12.28-6.07m770.62.08c2.71,0,5.24.78,7.48,2.31v-.06c4.29,2.7,6.87,7.19,6.87,12.02.14,1.52-.03,3.29-.48,5.06l-110.26,380.18c-2.66,9.16-6.98,17.58-12.79,25.03-7.77,9.97-18.34,17.86-30.57,22.86-7.09,3.03-14.53,4.55-21.96,4.55-6,0-11.97-.98-17.69-2.98-24.68-8.62-50.22-15.76-75.97-21.18-9.67-2.05-18.31-6.77-25.04-13.68l-56.76-58.14c-5.38-5.5-5.36-14.16.06-19.66l325.7-332.32,1.57-.96c3.41-2.03,6.73-3.04,9.82-3.04M399.56,57.46c-7.13,0-13.44,3.45-17.3,9.46l-.14.21-.11.22-151.71,297.8c-11.54,22.62-8.39,49.16,8.01,67.61.81.94,1.64,1.83,2.4,2.56l143.22,146.72c3.73,4.96,9.4,7.79,15.62,7.79s11.81-2.77,15.32-7.43l143.53-147.1c4.75-4.82,8.66-10.3,11.62-16.28,8.08-16.4,7.7-36.37-1.01-53.42l-76.03-149.27-76.03-149.28-.12-.24-.15-.22c-3.73-5.71-10.12-9.12-17.12-9.12h0Zm388.2,220.32v1.95c-.81-.11-1.64-.16-2.48-.16-4.05,0-8.22,1.26-12.39,3.75l-1.61.98-.53.32-.44.45-325.7,332.32c-7.34,7.47-7.37,19.18-.06,26.66l56.75,58.14c7.41,7.61,16.95,12.83,27.58,15.08,25.44,5.36,50.79,12.42,75.35,21.01,6.2,2.16,12.71,3.26,19.34,3.26,8.17,0,16.21-1.66,23.88-4.94,13.04-5.34,24.3-13.78,32.58-24.41,6.22-7.97,10.81-16.96,13.64-26.7l110.26-380.19.02-.08.02-.08c.57-2.24.78-4.49.63-6.51-.08-6.47-3.51-12.45-9.21-16.03l-7.66-4.81h0Zm-773.1,1.72h-.19c-6.56.26-12.42,3.19-16.08,8.06-3.49,4.64-4.56,10.6-3.02,16.8l.02.09.03.09,110.23,380.01c2.84,9.77,7.41,18.72,13.58,26.6.77,1.05,1.58,2,2.36,2.93l.04.05.02.02.02.02c13.84,16.06,34.65,25.27,57.09,25.27,8.73,0,17.27-1.39,25.38-4.14,56.36-18.69,115.35-29.14,175.3-31.06h.11s.11-.01.11-.01c4.79-.37,9.75-.68,15.18-.95,5.71-.31,10.93-3.03,14.34-7.48,3.34-4.28,4.67-9.81,3.64-15.15v-.02s0-.02,0-.02c-.67-3.27-2.36-6.34-5.02-9.11l-.04-.04-.04-.04L28.94,285.64l-1.19-1.22-.21-.22-.24-.19c-3.67-2.94-8.04-4.5-12.63-4.5h0Z"/>
          </g>
        </g>
      </g>
    </mask>
  </defs>
  <g class="cls-4">
    <path class="cls-2" d="m724.06,327.09l-24.51,21.24c-4.13,3.58-4.83,9.71-1.66,14.17,3.63,5.12,7.14,10.33,10.51,15.65l-37.66,38.42c-33.17-57.11-83.91-102.74-144.82-129.52-38.49-16.92-81.04-26.31-125.77-26.31s-87.75,9.5-126.41,26.61c-60.78,26.88-111.38,72.56-144.44,129.67l-37.69-38.39c3.46-5.47,7.06-10.85,10.8-16.12,3.17-4.46,2.47-10.59-1.66-14.17l-24.51-21.24c-4.3-3.72-4.9-10.19-1.34-14.61,6.58-8.19,13.47-16.13,20.64-23.8,3.88-4.14,10.35-4.45,14.64-.73l24.51,21.24c4.13,3.59,10.29,3.4,14.25-.36,8-7.59,16.35-14.81,25-21.66,4.3-3.39,5.34-9.46,2.39-14.05l-17.56-27.31c-3.06-4.76-1.85-11.13,2.8-14.38,8.6-6.02,17.43-11.71,26.49-17.07,4.88-2.89,11.19-1.37,14.26,3.42l17.54,27.28c2.96,4.6,8.92,6.16,13.79,3.66,9.78-5.02,19.82-9.62,30.09-13.76,5.08-2.04,7.8-7.57,6.26-12.81l-9.15-31.15c-1.6-5.44,1.37-11.21,6.73-13,9.94-3.33,20.04-6.3,30.29-8.87,5.49-1.39,11.09,1.87,12.69,7.3l7.2,24.51,1.95,6.64c1.53,5.24,6.8,8.42,12.17,7.41,10.76-2.04,21.68-3.61,32.76-4.67,5.45-.53,9.62-5.07,9.62-10.54v-32.42c0-5.67,4.46-10.36,10.13-10.58,5.23-.19,10.49-.29,15.76-.29s10.53.1,15.76.29c5.67.22,10.13,4.91,10.13,10.58v32.42c0,5.47,4.17,10.01,9.62,10.54,11.07,1.06,22,2.63,32.76,4.67,5.37,1.01,10.63-2.17,12.17-7.41l1.77-6.04,7.38-25.11c1.6-5.43,7.19-8.68,12.69-7.3,10.25,2.58,20.35,5.55,30.29,8.87,5.37,1.79,8.33,7.56,6.73,13l-9.15,31.15c-1.54,5.24,1.18,10.77,6.26,12.81,10.27,4.14,20.31,8.74,30.09,13.76,4.87,2.5,10.83.94,13.79-3.66l17.54-27.28c3.08-4.79,9.38-6.31,14.26-3.42,9.06,5.36,17.89,11.05,26.49,17.07,4.65,3.24,5.87,9.61,2.8,14.38l-17.55,27.31c-2.95,4.6-1.91,10.67,2.38,14.05,8.66,6.85,17,14.08,25,21.67,3.96,3.76,10.11,3.94,14.25.35l24.51-21.24c4.28-3.72,10.76-3.41,14.64.73,7.17,7.67,14.06,15.61,20.64,23.8,3.56,4.42,2.95,10.88-1.34,14.61Z"/>
  </g>
  <path class="cls-2" d="m565.86,417.3c-2.75,5.56-6.37,10.59-10.71,15l-143.77,147.35c-2.5,3.48-6.79,5.67-11.5,5.67s-9.03-2.19-11.81-6.04l-143.52-147.02c-.7-.67-1.46-1.49-2.16-2.3-15.03-16.88-17.92-41.26-7.32-62.05L386.79,70.13c2.94-4.58,7.77-7.16,13.1-7.16s10.12,2.56,12.93,6.85l76.03,149.28,76.03,149.28c7.99,15.65,8.36,33.96.98,48.93Zm-161.38,258.14L25.69,289.64l-1.21-1.24c-2.8-2.25-6.03-3.4-9.51-3.4-5.08.2-9.53,2.42-12.28,6.07-2.58,3.43-3.34,7.86-2.16,12.58l110.23,380.01c2.64,9.07,6.9,17.5,12.76,24.97.7.96,1.49,1.88,2.24,2.78,13.1,15.2,32.84,23.54,53.31,23.54,7.94,0,15.98-1.24,23.78-3.88,56.76-18.82,116.18-29.38,176.75-31.32,5.13-.39,10.24-.7,15.31-.95,4.21-.23,8.1-2.25,10.63-5.53,2.5-3.2,3.45-7.25,2.69-11.15-.48-2.33-1.74-4.58-3.73-6.66l-.03-.03Zm388.6-388.05c-4.79-3.29-10.91-3.09-17.3.73l-1.57.96-325.7,332.32c-5.41,5.51-5.44,14.16-.06,19.66l56.76,58.14c6.73,6.91,15.37,11.63,25.04,13.68,25.74,5.42,51.29,12.55,75.97,21.18,5.72,2,11.69,2.98,17.69,2.98,7.43,0,14.86-1.52,21.96-4.55,12.23-5,22.8-12.89,30.57-22.86,5.8-7.44,10.12-15.87,12.79-25.03l110.26-380.18c.45-1.77.62-3.54.48-5.06,0-4.83-2.58-9.32-6.87-12.02v.06Z"/>
</svg>