<?xml version="1.0" encoding="UTF-8"?>
<svg id="Layer_1" data-name="Layer 1" xmlns="http://www.w3.org/2000/svg" xmlns:xlink="http://www.w3.org/1999/xlink" viewBox="0 0 800 800">
  <defs>
    <style>
      .cls-1 {
        fill: url(#New_Gradient_Swatch-2);
        stroke-width: 0px;
      }

      .cls-2 {
        fill: url(#New_Gradient_Swatch);
        stroke: #000;
        stroke-miterlimit: 10;
        stroke-width: 5px;
      }
    </style>
    <linearGradient id="New_Gradient_Swatch" data-name="New Gradient Swatch" x1="606.32" y1="504.21" x2="191.61" y2="168.38" gradientUnits="userSpaceOnUse">
      <stop offset="0" stop-color="#4ca6ff"/>
      <stop offset=".28" stop-color="#4d4dff"/>
      <stop offset=".49" stop-color="#990aff"/>
      <stop offset=".64" stop-color="#d21eb4"/>
      <stop offset="1" stop-color="#ffc400"/>
    </linearGradient>
    <linearGradient id="New_Gradient_Swatch-2" data-name="New Gradient Swatch" x1="111.07" y1="-1575" x2="640.22" y2="-1042.29" gradientTransform="translate(0 -844.36) scale(1 -1)" xlink:href="#New_Gradient_Swatch"/>
  </defs>
  <path class="cls-2" d="m724.06,327.09l-24.51,21.24c-4.13,3.58-4.83,9.71-1.66,14.17,3.63,5.12,7.14,10.33,10.51,15.65l-37.66,38.42c-33.17-57.11-83.91-102.74-144.82-129.52-38.49-16.92-81.04-26.31-125.77-26.31s-87.75,9.5-126.41,26.61c-60.78,26.88-111.38,72.56-144.44,129.67l-37.69-38.39c3.46-5.47,7.06-10.85,10.8-16.12,3.17-4.46,2.47-10.59-1.66-14.17l-24.51-21.24c-4.3-3.72-4.9-10.19-1.34-14.61,6.58-8.19,13.47-16.13,20.64-23.8,3.88-4.14,10.35-4.45,14.64-.73l24.51,21.24c4.13,3.59,10.29,3.4,14.25-.36,8-7.59,16.35-14.81,25-21.66,4.3-3.39,5.34-9.46,2.39-14.05l-17.56-27.31c-3.06-4.76-1.85-11.13,2.8-14.38,8.6-6.02,17.43-11.71,26.49-17.07,4.88-2.89,11.19-1.37,14.26,3.42l17.54,27.28c2.96,4.6,8.92,6.16,13.79,3.66,9.78-5.02,19.82-9.62,30.09-13.76,5.08-2.04,7.8-7.57,6.26-12.81l-9.15-31.15c-1.6-5.44,1.37-11.21,6.73-13,9.94-3.33,20.04-6.3,30.29-8.87,5.49-1.39,11.09,1.87,12.69,7.3l7.2,24.51,1.95,6.64c1.53,5.24,6.8,8.42,12.17,7.41,10.76-2.04,21.68-3.61,32.76-4.67,5.45-.53,9.62-5.07,9.62-10.54v-32.42c0-5.67,4.46-10.36,10.13-10.58,5.23-.19,10.49-.29,15.76-.29s10.53.1,15.76.29c5.67.22,10.13,4.91,10.13,10.58v32.42c0,5.47,4.17,10.01,9.62,10.54,11.07,1.06,22,2.63,32.76,4.67,5.37,1.01,10.63-2.17,12.17-7.41l1.77-6.04,7.38-25.11c1.6-5.43,7.19-8.68,12.69-7.3,10.25,2.58,20.35,5.55,30.29,8.87,5.37,1.79,8.33,7.56,6.73,13l-9.15,31.15c-1.54,5.24,1.18,10.77,6.26,12.81,10.27,4.14,20.31,8.74,30.09,13.76,4.87,2.5,10.83.94,13.79-3.66l17.54-27.28c3.08-4.79,9.38-6.31,14.26-3.42,9.06,5.36,17.89,11.05,26.49,17.07,4.65,3.24,5.87,9.61,2.8,14.38l-17.55,27.31c-2.95,4.6-1.91,10.67,2.38,14.05,8.66,6.85,17,14.08,25,21.67,3.96,3.76,10.11,3.94,14.25.35l24.51-21.24c4.28-3.72,10.76-3.41,14.64.73,7.17,7.67,14.06,15.61,20.64,23.8,3.56,4.42,2.95,10.88-1.34,14.61Z"/>
  <path class="cls-1" d="m565.86,417.3c-2.75,5.56-6.37,10.59-10.71,15l-143.77,147.35c-2.5,3.48-6.79,5.67-11.5,5.67s-9.03-2.19-11.81-6.04l-143.52-147.02c-.7-.67-1.46-1.49-2.16-2.3-15.03-16.88-17.92-41.26-7.32-62.05L386.79,70.13c2.94-4.58,7.77-7.16,13.1-7.16s10.12,2.56,12.93,6.85l76.03,149.28,76.03,149.28c7.99,15.65,8.36,33.96.98,48.93Zm-161.38,258.14L25.69,289.64l-1.21-1.24c-2.8-2.25-6.03-3.4-9.51-3.4-5.08.2-9.53,2.42-12.28,6.07-2.58,3.43-3.34,7.86-2.16,12.58l110.23,380.01c2.64,9.07,6.9,17.5,12.76,24.97.7.96,1.49,1.88,2.24,2.78,13.1,15.2,32.84,23.54,53.31,23.54,7.94,0,15.98-1.24,23.78-3.88,56.76-18.82,116.18-29.38,176.75-31.32,5.13-.39,10.24-.7,15.31-.95,4.21-.23,8.1-2.25,10.63-5.53,2.5-3.2,3.45-7.25,2.69-11.15-.48-2.33-1.74-4.58-3.73-6.66l-.03-.03Zm388.6-388.05c-4.79-3.29-10.91-3.09-17.3.73l-1.57.96-325.7,332.32c-5.41,5.51-5.44,14.16-.06,19.66l56.76,58.14c6.73,6.91,15.37,11.63,25.04,13.68,25.74,5.42,51.29,12.55,75.97,21.18,5.72,2,11.69,2.98,17.69,2.98,7.43,0,14.86-1.52,21.96-4.55,12.23-5,22.8-12.89,30.57-22.86,5.8-7.44,10.12-15.87,12.79-25.03l110.26-380.18c.45-1.77.62-3.54.48-5.06,0-4.83-2.58-9.32-6.87-12.02v.06Z"/>
</svg>