<?xml version="1.0" encoding="UTF-8"?>
<svg id="Layer_1" data-name="Layer 1" xmlns="http://www.w3.org/2000/svg" xmlns:xlink="http://www.w3.org/1999/xlink" viewBox="0 0 800 800">
  <defs>
    <style>
      .cls-1 {
        fill: url(#New_Gradient_Swatch-2);
      }

      .cls-1, .cls-2, .cls-3, .cls-4, .cls-5, .cls-6, .cls-7, .cls-8 {
        stroke-width: 0px;
      }

      .cls-9 {
        font-family: FranklinGothic-Heavy, 'Franklin Gothic Heavy';
        font-size: 80.83px;
        font-weight: 800;
      }

      .cls-3 {
        fill: url(#New_Gradient_Swatch-4);
      }

      .cls-4 {
        fill: url(#New_Gradient_Swatch-8);
      }

      .cls-5 {
        fill: url(#New_Gradient_Swatch-7);
      }

      .cls-10 {
        letter-spacing: 0em;
      }

      .cls-6 {
        fill: url(#New_Gradient_Swatch-6);
      }

      .cls-11 {
        fill: url(#New_Gradient_Swatch);
        stroke: #000;
        stroke-miterlimit: 10;
        stroke-width: 5px;
      }

      .cls-12 {
        letter-spacing: 0em;
      }

      .cls-7 {
        fill: url(#New_Gradient_Swatch-5);
      }

      .cls-8 {
        fill: url(#New_Gradient_Swatch-3);
      }
    </style>
    <linearGradient id="New_Gradient_Swatch" data-name="New Gradient Swatch" x1="606.32" y1="450.63" x2="191.61" y2="114.8" gradientUnits="userSpaceOnUse">
      <stop offset="0" stop-color="#4ca6ff"/>
      <stop offset=".28" stop-color="#4d4dff"/>
      <stop offset=".49" stop-color="#990aff"/>
      <stop offset=".64" stop-color="#d21eb4"/>
      <stop offset="1" stop-color="#ffc400"/>
    </linearGradient>
    <linearGradient id="New_Gradient_Swatch-2" data-name="New Gradient Swatch" x1="174.02" y1="726.98" x2="478.76" y2="726.98" xlink:href="#New_Gradient_Swatch"/>
    <linearGradient id="New_Gradient_Swatch-3" data-name="New Gradient Swatch" x1="174.02" y1="726.98" x2="478.76" y2="726.98" xlink:href="#New_Gradient_Swatch"/>
    <linearGradient id="New_Gradient_Swatch-4" data-name="New Gradient Swatch" x1="174.02" y1="726.98" x2="478.76" y2="726.98" xlink:href="#New_Gradient_Swatch"/>
    <linearGradient id="New_Gradient_Swatch-5" data-name="New Gradient Swatch" x1="174.02" y1="726.98" x2="478.76" y2="726.98" xlink:href="#New_Gradient_Swatch"/>
    <linearGradient id="New_Gradient_Swatch-6" data-name="New Gradient Swatch" x1="174.02" y1="726.98" x2="478.76" y2="726.98" xlink:href="#New_Gradient_Swatch"/>
    <linearGradient id="New_Gradient_Swatch-7" data-name="New Gradient Swatch" x1="174.02" y1="726.98" x2="478.76" y2="726.98" xlink:href="#New_Gradient_Swatch"/>
    <linearGradient id="New_Gradient_Swatch-8" data-name="New Gradient Swatch" x1="111.07" y1="124.94" x2="640.22" y2="657.65" gradientTransform="translate(0 802) scale(1 -1)" xlink:href="#New_Gradient_Swatch"/>
  </defs>
  <path class="cls-11" d="m724.06,273.51l-24.51,21.24c-4.13,3.58-4.83,9.71-1.66,14.17,3.63,5.12,7.14,10.33,10.51,15.65l-37.66,38.42c-33.17-57.11-83.91-102.74-144.82-129.52-38.49-16.92-81.04-26.31-125.77-26.31s-87.75,9.5-126.41,26.61c-60.78,26.88-111.38,72.56-144.44,129.67l-37.69-38.39c3.46-5.47,7.06-10.85,10.8-16.12,3.17-4.46,2.47-10.59-1.66-14.17l-24.51-21.24c-4.3-3.72-4.9-10.19-1.34-14.61,6.58-8.19,13.47-16.13,20.64-23.8,3.88-4.14,10.35-4.45,14.64-.73l24.51,21.24c4.13,3.59,10.29,3.4,14.25-.36,8-7.59,16.35-14.81,25-21.66,4.3-3.39,5.34-9.46,2.39-14.05l-17.56-27.31c-3.06-4.76-1.85-11.13,2.8-14.38,8.6-6.02,17.43-11.71,26.49-17.07,4.88-2.89,11.19-1.37,14.26,3.42l17.54,27.28c2.96,4.6,8.92,6.16,13.79,3.66,9.78-5.02,19.82-9.62,30.09-13.76,5.08-2.04,7.8-7.57,6.26-12.81l-9.15-31.15c-1.6-5.44,1.37-11.21,6.73-13,9.94-3.33,20.04-6.3,30.29-8.87,5.49-1.39,11.09,1.87,12.69,7.3l7.2,24.51,1.95,6.64c1.53,5.24,6.8,8.42,12.17,7.41,10.76-2.04,21.68-3.61,32.76-4.67,5.45-.53,9.62-5.07,9.62-10.54v-32.42c0-5.67,4.46-10.36,10.13-10.58,5.23-.19,10.49-.29,15.76-.29s10.53.1,15.76.29c5.67.22,10.13,4.91,10.13,10.58v32.42c0,5.47,4.17,10.01,9.62,10.54,11.07,1.06,22,2.63,32.76,4.67,5.37,1.01,10.63-2.17,12.17-7.41l1.77-6.04,7.38-25.11c1.6-5.43,7.19-8.68,12.69-7.3,10.25,2.58,20.35,5.55,30.29,8.87,5.37,1.79,8.33,7.56,6.73,13l-9.15,31.15c-1.54,5.24,1.18,10.77,6.26,12.81,10.27,4.14,20.31,8.74,30.09,13.76,4.87,2.5,10.83.94,13.79-3.66l17.54-27.28c3.08-4.79,9.38-6.31,14.26-3.42,9.06,5.36,17.89,11.05,26.49,17.07,4.65,3.24,5.87,9.61,2.8,14.38l-17.55,27.31c-2.95,4.6-1.91,10.67,2.38,14.05,8.66,6.85,17,14.08,25,21.67,3.96,3.76,10.11,3.94,14.25.35l24.51-21.24c4.28-3.72,10.76-3.41,14.64.73,7.17,7.67,14.06,15.61,20.64,23.8,3.56,4.42,2.95,10.88-1.34,14.61Z"/>
  <g>
    <g>
      <text class="cls-9" transform="translate(174.02 753.92)"><tspan x="0" y="0">TH</tspan><tspan class="cls-12" x="93.07" y="0">R</tspan><tspan class="cls-10" x="148.21" y="0">ONE</tspan></text>
      <g>
        <path class="cls-1" d="m200.85,712.95v40.97h-15.67v-40.97h-11.17v-12.91h38.01v12.91h-11.17Z"/>
        <path class="cls-8" d="m262.43,700.04v53.88h-16.54v-20.96h-12.63v20.96h-16.54v-53.88h16.54v19.81h12.63v-19.81h16.54Z"/>
        <path class="cls-3" d="m319.74,753.92h-18.33l-7.87-20.6h-5.21v20.6h-16.54v-53.88h28.14c6.21,0,11.03,1.45,14.47,4.36,3.43,2.91,5.15,6.74,5.15,11.5,0,3.11-.63,5.85-1.89,8.23-1.26,2.38-3.82,4.48-7.66,6.3l9.75,23.48Zm-31.42-32.13h7.06c2.08,0,3.75-.43,5.01-1.3s1.89-2.14,1.89-3.83c0-3.45-2.12-5.17-6.35-5.17h-7.62v10.3Z"/>
        <path class="cls-7" d="m350.21,754.75c-7.58,0-13.75-2.51-18.53-7.54-4.78-5.03-7.16-11.75-7.16-20.17s2.28-14.7,6.85-19.95c4.56-5.25,10.9-7.87,19-7.87,7.5,0,13.61,2.47,18.33,7.42,4.72,4.95,7.08,11.55,7.08,19.81s-2.38,15.41-7.14,20.56c-4.76,5.16-10.91,7.74-18.43,7.74Zm-.08-12.24c2.79,0,4.8-1.22,6.02-3.65s1.84-6.89,1.84-13.36c0-9.37-2.51-14.05-7.54-14.05-5.42,0-8.13,5.34-8.13,16.03,0,10.02,2.6,15.04,7.81,15.04Z"/>
        <path class="cls-6" d="m428.83,753.92h-13.46l-14.76-23.8c-1.89-3.05-3.8-6.76-5.73-11.13.87,3.47,1.3,6.42,1.3,8.84v26.09h-13.42v-53.88h15.63l12.55,19.73c2.5,3.92,4.39,7.37,5.68,10.34-.84-4.6-1.26-9.31-1.26-14.13v-15.95h13.46v53.88Z"/>
        <path class="cls-5" d="m478.76,741.05v12.87h-40.54v-53.88h40.54v12.43h-24.31v7.82h19.66v11.96h-19.66v8.8h24.31Z"/>
      </g>
    </g>
    <g>
      <path class="cls-2" d="m501.18,700.89h7.76l17.87,53.03h-7.28l-9.13-29.59c-1.86-5.9-3.64-11.72-5.25-17.87h-.32c-1.7,6.14-3.4,11.96-5.25,17.87l-9.3,29.59h-6.95l17.87-53.03Zm-8.41,31.45h24.33v5.5h-24.33v-5.5Z"/>
      <path class="cls-2" d="m537.55,700.89h16.01c11.72,0,19.64,3.96,19.64,15.6s-8,16.41-19.64,16.41h-9.22v21.02h-6.79v-53.03Zm15.2,26.52c9.22,0,13.66-3.4,13.66-10.91s-4.53-10.1-13.66-10.1h-8.41v21.02h8.41Z"/>
      <path class="cls-2" d="m585.49,748.18h13.18v-41.55h-13.18v-5.74h33.15v5.74h-13.18v41.55h13.18v5.74h-33.15v-5.74Z"/>
    </g>
  </g>
  <path class="cls-4" d="m565.86,363.72c-2.75,5.56-6.37,10.59-10.71,15l-143.77,147.35c-2.5,3.48-6.79,5.67-11.5,5.67s-9.03-2.19-11.81-6.04l-143.52-147.02c-.7-.67-1.46-1.49-2.16-2.3-15.03-16.88-17.92-41.26-7.32-62.05L386.79,16.55c2.94-4.58,7.77-7.16,13.1-7.16s10.12,2.56,12.93,6.85l76.03,149.28,76.03,149.28c7.99,15.65,8.36,33.96.98,48.93Zm-161.38,258.14L25.69,236.06l-1.21-1.24c-2.8-2.25-6.03-3.4-9.51-3.4-5.08.2-9.53,2.42-12.28,6.07-2.58,3.43-3.34,7.86-2.16,12.58l110.23,380.01c2.64,9.07,6.9,17.5,12.76,24.97.7.96,1.49,1.88,2.24,2.78,13.1,15.2,32.84,23.54,53.31,23.54,7.94,0,15.98-1.24,23.78-3.88,56.76-18.82,116.18-29.38,176.75-31.32,5.13-.39,10.24-.7,15.31-.95,4.21-.23,8.1-2.25,10.63-5.53,2.5-3.2,3.45-7.25,2.69-11.15-.48-2.33-1.74-4.58-3.73-6.66l-.03-.03Zm388.6-388.05c-4.79-3.29-10.91-3.09-17.3.73l-1.57.96-325.7,332.32c-5.41,5.51-5.44,14.16-.06,19.66l56.76,58.14c6.73,6.91,15.37,11.63,25.04,13.68,25.74,5.42,51.29,12.55,75.97,21.18,5.72,2,11.69,2.98,17.69,2.98,7.43,0,14.86-1.52,21.96-4.55,12.23-5,22.8-12.89,30.57-22.86,5.8-7.44,10.12-15.87,12.79-25.03l110.26-380.18c.45-1.77.62-3.54.48-5.06,0-4.83-2.58-9.32-6.87-12.02v.06Z"/>
</svg>