<?xml version="1.0" encoding="UTF-8"?>
<svg id="Layer_1" data-name="Layer 1" xmlns="http://www.w3.org/2000/svg" xmlns:xlink="http://www.w3.org/1999/xlink" viewBox="0 0 3277.5 800">
  <defs>
    <style>
      .cls-1 {
        fill: url(#New_Gradient_Swatch-2);
      }

      .cls-1, .cls-2, .cls-3, .cls-4, .cls-5, .cls-6, .cls-7, .cls-8 {
        stroke-width: 0px;
      }

      .cls-2 {
        fill: url(#New_Gradient_Swatch-4);
      }

      .cls-3 {
        fill: #fff;
      }

      .cls-4 {
        fill: url(#New_Gradient_Swatch-8);
      }

      .cls-9 {
        letter-spacing: 0em;
      }

      .cls-5 {
        fill: url(#New_Gradient_Swatch-7);
      }

      .cls-10 {
        font-family: FranklinGothic-Heavy, 'Franklin Gothic Heavy';
        font-size: 427.19px;
        font-weight: 800;
      }

      .cls-11 {
        fill: url(#New_Gradient_Swatch);
        stroke: #fff;
        stroke-miterlimit: 10;
        stroke-width: 5px;
      }

      .cls-6 {
        fill: url(#New_Gradient_Swatch-6);
      }

      .cls-7 {
        fill: url(#New_Gradient_Swatch-5);
      }

      .cls-8 {
        fill: url(#New_Gradient_Swatch-3);
      }
    </style>
    <linearGradient id="New_Gradient_Swatch" data-name="New Gradient Swatch" x1="606.32" y1="504.21" x2="191.61" y2="168.38" gradientUnits="userSpaceOnUse">
      <stop offset="0" stop-color="#4ca6ff"/>
      <stop offset=".28" stop-color="#4d4dff"/>
      <stop offset=".49" stop-color="#990aff"/>
      <stop offset=".64" stop-color="#d21eb4"/>
      <stop offset="1" stop-color="#ffc400"/>
    </linearGradient>
    <linearGradient id="New_Gradient_Swatch-2" data-name="New Gradient Swatch" x1="111.07" y1="-3230.94" x2="640.22" y2="-2698.23" gradientTransform="translate(0 -2500.3) scale(1 -1)" xlink:href="#New_Gradient_Swatch"/>
    <linearGradient id="New_Gradient_Swatch-3" data-name="New Gradient Swatch" x1="887.25" y1="463.7" x2="2497.75" y2="463.7" xlink:href="#New_Gradient_Swatch"/>
    <linearGradient id="New_Gradient_Swatch-4" data-name="New Gradient Swatch" x1="887.25" y1="463.7" x2="2497.75" y2="463.7" xlink:href="#New_Gradient_Swatch"/>
    <linearGradient id="New_Gradient_Swatch-5" data-name="New Gradient Swatch" x1="887.25" y1="463.7" x2="2497.75" y2="463.7" xlink:href="#New_Gradient_Swatch"/>
    <linearGradient id="New_Gradient_Swatch-6" data-name="New Gradient Swatch" x1="887.25" y1="463.7" x2="2497.75" y2="463.7" xlink:href="#New_Gradient_Swatch"/>
    <linearGradient id="New_Gradient_Swatch-7" data-name="New Gradient Swatch" x1="887.25" y1="463.7" x2="2497.75" y2="463.7" xlink:href="#New_Gradient_Swatch"/>
    <linearGradient id="New_Gradient_Swatch-8" data-name="New Gradient Swatch" x1="887.25" y1="463.7" x2="2497.75" y2="463.7" xlink:href="#New_Gradient_Swatch"/>
  </defs>
  <g>
    <path class="cls-11" d="m724.06,327.09l-24.51,21.24c-4.13,3.58-4.83,9.71-1.66,14.17,3.63,5.12,7.14,10.33,10.51,15.65l-37.66,38.42c-33.17-57.11-83.91-102.74-144.82-129.52-38.49-16.92-81.04-26.31-125.77-26.31s-87.75,9.5-126.41,26.61c-60.78,26.88-111.38,72.56-144.44,129.67l-37.69-38.39c3.46-5.47,7.06-10.85,10.8-16.12,3.17-4.46,2.47-10.59-1.66-14.17l-24.51-21.24c-4.3-3.72-4.9-10.19-1.34-14.61,6.58-8.19,13.47-16.13,20.64-23.8,3.88-4.14,10.35-4.45,14.64-.73l24.51,21.24c4.13,3.59,10.29,3.4,14.25-.36,8-7.59,16.35-14.81,25-21.66,4.3-3.39,5.34-9.46,2.39-14.05l-17.56-27.31c-3.06-4.76-1.85-11.13,2.8-14.38,8.6-6.02,17.43-11.71,26.49-17.07,4.88-2.89,11.19-1.37,14.26,3.42l17.54,27.28c2.96,4.6,8.92,6.16,13.79,3.66,9.78-5.02,19.82-9.62,30.09-13.76,5.08-2.04,7.8-7.57,6.26-12.81l-9.15-31.15c-1.6-5.44,1.37-11.21,6.73-13,9.94-3.33,20.04-6.3,30.29-8.87,5.49-1.39,11.09,1.87,12.69,7.3l7.2,24.51,1.95,6.64c1.53,5.24,6.8,8.42,12.17,7.41,10.76-2.04,21.68-3.61,32.76-4.67,5.45-.53,9.62-5.07,9.62-10.54v-32.42c0-5.67,4.46-10.36,10.13-10.58,5.23-.19,10.49-.29,15.76-.29s10.53.1,15.76.29c5.67.22,10.13,4.91,10.13,10.58v32.42c0,5.47,4.17,10.01,9.62,10.54,11.07,1.06,22,2.63,32.76,4.67,5.37,1.01,10.63-2.17,12.17-7.41l1.77-6.04,7.38-25.11c1.6-5.43,7.19-8.68,12.69-7.3,10.25,2.58,20.35,5.55,30.29,8.87,5.37,1.79,8.33,7.56,6.73,13l-9.15,31.15c-1.54,5.24,1.18,10.77,6.26,12.81,10.27,4.14,20.31,8.74,30.09,13.76,4.87,2.5,10.83.94,13.79-3.66l17.54-27.28c3.08-4.79,9.38-6.31,14.26-3.42,9.06,5.36,17.89,11.05,26.49,17.07,4.65,3.24,5.87,9.61,2.8,14.38l-17.55,27.31c-2.95,4.6-1.91,10.67,2.38,14.05,8.66,6.85,17,14.08,25,21.67,3.96,3.76,10.11,3.94,14.25.35l24.51-21.24c4.28-3.72,10.76-3.41,14.64.73,7.17,7.67,14.06,15.61,20.64,23.8,3.56,4.42,2.95,10.88-1.34,14.61Z"/>
    <path class="cls-1" d="m565.86,417.3c-2.75,5.56-6.37,10.59-10.71,15l-143.77,147.35c-2.5,3.48-6.79,5.67-11.5,5.67s-9.03-2.19-11.81-6.04l-143.52-147.02c-.7-.67-1.46-1.49-2.16-2.3-15.03-16.88-17.92-41.26-7.32-62.05L386.79,70.13c2.94-4.58,7.77-7.16,13.1-7.16s10.12,2.56,12.93,6.85l76.03,149.28,76.03,149.28c7.99,15.65,8.36,33.96.98,48.93Zm-161.38,258.14L25.69,289.64l-1.21-1.24c-2.8-2.25-6.03-3.4-9.51-3.4-5.08.2-9.53,2.42-12.28,6.07-2.58,3.43-3.34,7.86-2.16,12.58l110.23,380.01c2.64,9.07,6.9,17.5,12.76,24.97.7.96,1.49,1.88,2.24,2.78,13.1,15.2,32.84,23.54,53.31,23.54,7.94,0,15.98-1.24,23.78-3.88,56.76-18.82,116.18-29.38,176.75-31.32,5.13-.39,10.24-.7,15.31-.95,4.21-.23,8.1-2.25,10.63-5.53,2.5-3.2,3.45-7.25,2.69-11.15-.48-2.33-1.74-4.58-3.73-6.66l-.03-.03Zm388.6-388.05c-4.79-3.29-10.91-3.09-17.3.73l-1.57.96-325.7,332.32c-5.41,5.51-5.44,14.16-.06,19.66l56.76,58.14c6.73,6.91,15.37,11.63,25.04,13.68,25.74,5.42,51.29,12.55,75.97,21.18,5.72,2,11.69,2.98,17.69,2.98,7.43,0,14.86-1.52,21.96-4.55,12.23-5,22.8-12.89,30.57-22.86,5.8-7.44,10.12-15.87,12.79-25.03l110.26-380.18c.45-1.77.62-3.54.48-5.06,0-4.83-2.58-9.32-6.87-12.02v.06Z"/>
  </g>
  <g>
    <g>
      <text class="cls-10" transform="translate(887.25 606.06)"><tspan x="0" y="0">TH</tspan><tspan class="cls-9" x="491.85" y="0">R</tspan><tspan x="783.25" y="0">ONE</tspan></text>
      <g>
        <path class="cls-8" d="m1029.09,389.54v216.51h-82.81v-216.51h-59.03v-68.21h200.87v68.21h-59.03Z"/>
        <path class="cls-2" d="m1354.48,321.34v284.72h-87.4v-110.76h-66.75v110.76h-87.4v-284.72h87.4v104.71h66.75v-104.71h87.4Z"/>
        <path class="cls-7" d="m1657.35,606.06h-96.89l-41.59-108.88h-27.56v108.88h-87.4v-284.72h148.72c32.82,0,58.3,7.69,76.45,23.05,18.15,15.37,27.22,35.64,27.22,60.8,0,16.41-3.34,30.91-10.01,43.49-6.67,12.59-20.17,23.67-40.47,33.27l51.52,124.11Zm-166.04-169.79h37.34c10.98,0,19.82-2.29,26.49-6.88s10.01-11.33,10.01-20.23c0-18.21-11.2-27.32-33.58-27.32h-40.26v54.44Z"/>
        <path class="cls-6" d="m1818.38,610.44c-40.05,0-72.69-13.28-97.93-39.84-25.24-26.56-37.86-62.09-37.86-106.59s12.06-77.7,36.19-105.44c24.12-27.74,57.6-41.61,100.43-41.61,39.63,0,71.93,13.07,96.89,39.21,24.96,26.14,37.44,61.05,37.44,104.71s-12.59,81.42-37.75,108.67c-25.17,27.26-57.64,40.88-97.41,40.88Zm-.42-64.66c14.74,0,25.34-6.43,31.81-19.29,6.47-12.86,9.7-36.4,9.7-70.61,0-49.5-13.28-74.26-39.84-74.26-28.65,0-42.97,28.23-42.97,84.69,0,52.98,13.77,79.47,41.3,79.47Z"/>
        <path class="cls-5" d="m2233.89,606.06h-71.13l-77.98-125.8c-10.01-16.13-20.1-35.73-30.28-58.8,4.59,18.36,6.88,33.93,6.88,46.72v137.88h-70.92v-284.72h82.6l66.34,104.29c13.21,20.72,23.22,38.94,30.03,54.66-4.45-24.33-6.67-49.23-6.67-74.67v-84.27h71.13v284.72Z"/>
        <path class="cls-4" d="m2497.75,538.06v68h-214.22v-284.72h214.22v65.71h-128.49v41.3h103.88v63.2h-103.88v46.51h128.49Z"/>
      </g>
    </g>
    <g>
      <path class="cls-3" d="m2616.22,325.83h41.01l94.41,280.23h-38.45l-48.27-156.35c-9.83-31.18-19.22-61.94-27.77-94.41h-1.71c-8.97,32.47-17.94,63.22-27.77,94.41l-49.13,156.35h-36.74l94.41-280.23Zm-44.43,166.17h128.58v29.05h-128.58v-29.05Z"/>
      <path class="cls-3" d="m2808.45,325.83h84.58c61.94,0,103.81,20.93,103.81,82.45s-42.29,86.72-103.81,86.72h-48.7v111.07h-35.88v-280.23Zm80.31,140.12c48.7,0,72.19-17.94,72.19-57.67s-23.92-53.4-72.19-53.4h-44.43v111.07h44.43Z"/>
      <path class="cls-3" d="m3061.77,575.73h69.63v-219.57h-69.63v-30.33h175.15v30.33h-69.63v219.57h69.63v30.33h-175.15v-30.33Z"/>
    </g>
  </g>
</svg>